<svg width="60" height="60" viewBox="0 0 60 60" fill="none" xmlns="http://www.w3.org/2000/svg">
<g clip-path="url(#clip0)">
<rect x="2" y="2" width="47" height="47" rx="5" fill="url(#paint0_linear)"/>
<path d="M17.4284 56V30.4062H25.6725C27.9342 30.4062 29.9674 30.9219 31.7721 31.9531C33.5768 32.9727 34.983 34.4199 35.9909 36.2949C37.0104 38.1582 37.526 40.25 37.5377 42.5703V43.748C37.5377 46.0918 37.0397 48.1953 36.0436 50.0586C35.0592 51.9102 33.6647 53.3633 31.86 54.418C30.067 55.4609 28.0631 55.9883 25.8483 56H17.4284ZM23.5983 35.1699V51.2539H25.7428C27.5123 51.2539 28.8717 50.627 29.8209 49.373C30.7702 48.1074 31.2448 46.2324 31.2448 43.748V42.6406C31.2448 40.168 30.7702 38.3047 29.8209 37.0508C28.8717 35.7969 27.4889 35.1699 25.6725 35.1699H23.5983ZM49.6673 50.6562C49.6673 50.1523 49.4037 49.748 48.8763 49.4434C48.349 49.1387 47.347 48.8223 45.8705 48.4941C44.3939 48.166 43.1752 47.7383 42.2142 47.2109C41.2533 46.6719 40.5209 46.0215 40.017 45.2598C39.513 44.498 39.2611 43.625 39.2611 42.6406C39.2611 40.8945 39.9818 39.459 41.4232 38.334C42.8646 37.1973 44.7513 36.6289 47.0834 36.6289C49.5912 36.6289 51.6068 37.1973 53.1302 38.334C54.6537 39.4707 55.4154 40.9648 55.4154 42.8164H49.474C49.474 41.293 48.6713 40.5312 47.0658 40.5312C46.4447 40.5312 45.9232 40.707 45.5013 41.0586C45.0795 41.3984 44.8685 41.8262 44.8685 42.3418C44.8685 42.8691 45.1263 43.2969 45.642 43.625C46.1576 43.9531 46.9779 44.2227 48.1029 44.4336C49.2396 44.6445 50.2357 44.8965 51.0912 45.1895C53.9505 46.1738 55.3802 47.9375 55.3802 50.4805C55.3802 52.2148 54.6068 53.627 53.0599 54.7168C51.5248 55.8066 49.5326 56.3516 47.0834 56.3516C45.4545 56.3516 44.0013 56.0586 42.724 55.4727C41.4466 54.8867 40.4505 54.0898 39.7357 53.082C39.0209 52.0742 38.6634 51.0137 38.6634 49.9004H44.2005C44.224 50.7793 44.517 51.4238 45.0795 51.834C45.642 52.2324 46.3627 52.4316 47.2416 52.4316C48.0502 52.4316 48.6537 52.2676 49.0521 51.9395C49.4623 51.6113 49.6673 51.1836 49.6673 50.6562Z" fill="black"/>
</g>
<defs>
<linearGradient id="paint0_linear" x1="-22.2344" y1="-30.9" x2="49.9408" y2="35.4432" gradientUnits="userSpaceOnUse">
<stop offset="0.488167" stop-color="#8EFF66"/>
<stop offset="0.952851" stop-color="#45D9E2"/>
</linearGradient>
<clipPath id="clip0">
<rect width="60" height="60" fill="white"/>
</clipPath>
</defs>
</svg>
